#!OML:ASF H:\Male1\Project 1\Capture day 1\Session 1\Male1.ASF
:FULLY-SPECIFIED
:DEGREES
604
root 32.8035 15.2006 -2.22916 -0.938747 1.3733 0.875041
lowerback 6.38366 1.5826 -8.47639
upperback 5.02252 1.74158 -3.36173
thorax 1.51099 0.704129 1.16867
lowerneck -10.1104 1.98921 2.89878
upperneck 18.773 1.37275 4.33722
head 7.43566 1.25467 1.06223
rclavicle 1.90833e-014 -1.90833e-014
rhumerus -46.3411 14.2981 -94.4018
rradius 37.6178
rwrist -20.2352
rhand -19.7477 -1.2147
rfingers 7.12502
rthumb 6.5834 -31.0924
lclavicle 1.90833e-014 -1.90833e-014
lhumerus -44.8811 -2.65905 79.3129
lradius 32.1343
lwrist 5.40511
lhand -21.9451 13.4367
lfingers 7.12502
lthumb 4.46174 43.3697
rfemur -30.1554 -15.6501 27.3038
rtibia 53.6049
rfoot -21.5817 -17.219
rtoes -21.7906
lfemur 4.84742 -3.19217 -29.1686
ltibia 22.4869
lfoot -29.6844 18.301
ltoes 8.54026
605
root 32.6371 15.2178 -2.24763 -0.724989 0.417552 0.816956
lowerback 5.95836 1.8672 -8.56477
upperback 4.90528 2.1535 -3.30442
thorax 1.58629 0.905255 1.26457
lowerneck -10.1404 1.9769 2.86467
upperneck 18.864 1.34506 4.39719
head 7.47038 1.2468 1.08654
rclavicle -2.22639e-014 1.90833e-014
rhumerus -46.3561 14.1188 -94.0407
rradius 37.555
rwrist -20.2303
rhand -20.2993 -1.56292
rfingers 7.12502
rthumb 6.05088 -31.4565
lclavicle -2.22639e-014 1.90833e-014
lhumerus -45.0126 -2.36638 79.3442
lradius 32.2357
lwrist 5.62786
lhand -21.7763 13.4318
lfingers 7.12502
lthumb 4.62482 43.3613
rfemur -29.6481 -13.8313 24.9479
rtibia 52.9946
rfoot -22.0526 -17.7333
rtoes -16.5536
lfemur 4.63384 -3.2274 -28.5723
ltibia 22.394
lfoot -29.9596 18.9944
ltoes 7.94937
606
root 32.4767 15.231 -2.26091 -0.663998 0.102686 0.692305
lowerback 5.7955 1.9918 -8.38727
upperback 4.83294 2.33865 -3.25468
thorax 1.5879 1.00267 1.21296
lowerneck -10.0782 1.91334 3.20499
upperneck 18.8199 1.26783 4.05499
head 7.45174 1.20126 0.909883
rclavicle 1.70955e-014 2.8625e-014
rhumerus -46.5557 14.0873 -93.8904
rradius 37.5958
rwrist -20.6203
rhand -20.02 -0.886449
rfingers 7.12502
rthumb 6.32051 -30.7722
lclavicle 1.70955e-014 2.8625e-014
lhumerus -45.1358 -2.19824 79.4069
lradius 32.3305
lwrist 5.71534
lhand -21.7441 13.4611
lfingers 7.12502
lthumb 4.65591 43.3899
rfemur -28.855 -12.3809 22.5831
rtibia 52.094
rfoot -22.1992 -18.3205
rtoes -17.0062
lfemur 4.62767 -3.85893 -27.9777
ltibia 22.2806
lfoot -30.0838 19.8672
ltoes 6.97035
607
root 32.3223 15.2418 -2.26892 -0.892993 0.312241 0.547436
lowerback 5.96778 1.97136 -8.04896
upperback 4.86452 2.3081 -3.16582
thorax 1.53281 0.99624 1.1152
lowerneck -9.98859 1.84826 3.05554
upperneck 18.7821 1.17335 4.25106
head 7.42114 1.16204 0.988279
rclavicle -1.59028e-015 3.18055e-015
rhumerus -46.598 13.3746 -93.332
rradius 37.5117
rwrist -20.253
rhand -19.1703 -0.284942
rfingers 7.12502
rthumb 7.14078 -30.1445
lclavicle -1.59028e-015 3.18055e-015
lhumerus -45.2867 -2.20661 79.6208
lradius 32.4621
lwrist 5.85838
lhand -21.7525 13.4365
lfingers 7.12502
lthumb 4.64775 43.3655
rfemur -27.5132 -11.3766 20.1424
rtibia 50.8543
rfoot -22.3599 -18.786
rtoes -13.766
lfemur 4.94817 -4.64034 -27.3407
ltibia 22.1563
lfoot -29.9138 20.5529
ltoes 5.86004
608
root 32.1846 15.2364 -2.27752 -1.67576 1.44288 0.492838
lowerback 6.80955 1.65696 -7.40278
upperback 5.09175 1.84882 -3.14497
thorax 1.35108 0.785846 0.784749
lowerneck -9.92298 1.77835 2.81186
upperneck 18.7528 1.07301 4.52089
head 7.39654 1.12039 1.10624
rclavicle 7.95139e-015 9.54166e-015
rhumerus -46.6628 13.0589 -92.9936
rradius 37.4225
rwrist -20.0848
rhand -19.6304 -0.366477
rfingers 7.12502
rthumb 6.69663 -30.2406
lclavicle 7.95139e-015 9.54166e-015
lhumerus -45.4152 -2.31423 79.8429
lradius 32.5608
lwrist 5.97203
lhand -21.8368 13.5
lfingers 7.12502
lthumb 4.56634 43.4308
rfemur -25.1758 -11.1762 17.3911
rtibia 49.3395
rfoot -22.9088 -18.7013
rtoes -15.1573
lfemur 5.83808 -5.93459 -26.894
ltibia 22.0111
lfoot -29.4525 21.0438
ltoes 4.48251
609
root 32.0217 15.2457 -2.27966 -1.63052 1.38755 0.534796
lowerback 6.59189 1.65331 -7.25406
upperback 5.08217 1.8733 -3.1244
thorax 1.46232 0.798602 0.728173
lowerneck -9.96392 1.75028 2.80892
upperneck 18.7597 1.01667 4.60218
head 7.40653 1.10132 1.12868
rclavicle -2.70347e-014 -7.95139e-015
rhumerus -46.6821 12.9849 -92.7913
rradius 37.2703
rwrist -20.0412
rhand -19.4377 0.00550569
rfingers 7.12502
rthumb 6.88267 -29.8626
lclavicle -2.70347e-014 -7.95139e-015
lhumerus -45.4732 -2.2791 79.963
lradius 32.581
lwrist 6.0236
lhand -22.0799 13.5347
lfingers 7.12502
lthumb 4.33157 43.4704
rfemur -23.8383 -9.5949 14.9874
rtibia 47.5902
rfoot -23.206 -18.7655
rtoes -12.34
lfemur 5.93529 -6.37151 -26.3457
ltibia 21.795
lfoot -29.3977 21.3291
ltoes 4.2417
